<svg xmlns="http://www.w3.org/2000/svg" xmlns:svg="http://www.w3.org/2000/svg" xmlns:xlink="http://www.w3.org/1999/xlink" version="1.0" height="1575.0822867870331pt" width="1195.550048828125pt" viewBox="129.5 31.950000000000003 1203.550048828125 1581.0822867870331" ><defs><style type="text/css">
            @font-face {
                font-family: 'noto_regular';
                src: url('https://app.creately.com/diagram/assets/fonts/noto/noto-regular.woff') format('woff'),
                     url('https://app.creately.com/diagram/assets/fonts/noto/noto-regular.woff2') format('woff2');
                font-weight: normal;
                font-style: normal;
            }
        p {
            margin: 0;
        }
        </style></defs><defs><style>
            span{ display: inline-block; }
        </style></defs><g id="7jdyy5p2aq"><g transform="translate(135 34.95)"><path d="M 1,1 L 1194.01953125,1 L 1194.01953125,1574.0421905517578 L 1,1574.0421905517578 Z" fill="rgb(255, 255, 255)" stroke="rgb(204, 204, 204)" stroke-width="2" stroke-linecap="round" stroke-linejoin="round"/><path d="M 2.5,2.5 L 1192.51953125,2.5 L 1192.51953125,31.5 L 2.5,31.5 Z" fill="rgb(221, 223, 220)" stroke="rgb(221, 223, 220)" stroke-width="1" stroke-linecap="round" stroke-linejoin="round"/><path d="M 2.5,30.5 L 1192.51953125,30.5 L 1192.51953125,64.5 L 2.5,64.5 Z" fill="rgb(241, 242, 241)" stroke="rgb(241, 242, 241)" stroke-width="1" stroke-linecap="round" stroke-linejoin="round"/><path d="M 70,30 L 85,10 L 155,10 L 170,30 L 70,30" fill="rgb(241, 242, 241)" stroke="rgb(241, 242, 241)" stroke-width="1" stroke-linecap="round" stroke-linejoin="round"/><path d="M 16,19.5 C 16,22.579201435678005 19.333333333333332,24.503702332976754 22,22.964101615137753 C 23.23760430703401,22.249570435321427 24,20.929062359632656 24,19.5 C 24,16.420798564321995 20.666666666666668,14.496297667023246 18,16.035898384862247 C 16.76239569296599,16.750429564678573 16,18.070937640367344 16,19.5" fill="rgb(233, 94, 108)" stroke="rgb(233, 94, 108)" stroke-width="1" stroke-linecap="round" stroke-linejoin="round"/><path d="M 31,19.5 C 31,22.579201435678005 34.333333333333336,24.503702332976754 37,22.964101615137753 C 38.23760430703401,22.249570435321427 39,20.929062359632656 39,19.5 C 39,16.420798564321995 35.666666666666664,14.496297667023246 33,16.035898384862247 C 31.76239569296599,16.750429564678573 31,18.070937640367344 31,19.5" fill="rgb(235, 182, 48)" stroke="rgb(235, 182, 48)" stroke-width="1" stroke-linecap="round" stroke-linejoin="round"/><path d="M 46,19.5 C 46,22.579201435678005 49.333333333333336,24.503702332976754 52,22.964101615137753 C 53.23760430703401,22.249570435321427 54,20.929062359632656 54,19.5 C 54,16.420798564321995 50.666666666666664,14.496297667023246 48,16.035898384862247 C 46.76239569296599,16.750429564678573 46,18.070937640367344 46,19.5" fill="rgb(59, 187, 27)" stroke="rgb(59, 187, 27)" stroke-width="1" stroke-linecap="round" stroke-linejoin="round"/><path d="M 85,37 L 1155.01953125,37 L 1155.01953125,60 L 85,60 Z" fill="rgb(255, 255, 255)" stroke="rgb(204, 204, 204)" stroke-width="0.5" stroke-linecap="round" stroke-linejoin="round"/><path d="M 21.8,47.4 L 13.8,47.4 L 16.6,44.6 Q 16.788,44.413 16.881,44.194 Q 16.975,43.975 16.975,43.75 Q 16.975,43.525 16.881,43.306 Q 16.788,43.088 16.6,42.9 L 16.6,42.9 Q 16.412,42.713 16.194,42.619 Q 15.975,42.525 15.75,42.525 Q 15.525,42.525 15.306000000000001,42.619 Q 15.087,42.713 14.9,42.9 L 10.3,47.5 Q 10.225,47.575 10.169,47.684 Q 10.113,47.794 10.075,47.925 Q 10.038,48.056 10.019,48.203 Q 10,48.35 10,48.5 Q 10,48.575 10.002,48.666 Q 10.003,48.756 10.013,48.85 Q 10.022,48.944 10.042,49.034 Q 10.063,49.125 10.1,49.2 Q 10.138,49.275 10.175,49.333 Q 10.213,49.391 10.25,49.438 Q 10.287,49.484 10.325,49.522999999999996 Q 10.362,49.563 10.4,49.6 L 14.9,54.1 Q 15.088000000000001,54.287 15.306000000000001,54.381 Q 15.525,54.475 15.75,54.475 Q 15.975,54.475 16.194,54.381 Q 16.413,54.287 16.6,54.1 L 16.7,54 Q 16.887999999999998,53.813 16.967,53.594 Q 17.047,53.375 17.038,53.15 Q 17.028,52.925 16.939,52.706 Q 16.85,52.488 16.7,52.3 L 14.2,49.7 L 21.8,49.7 Q 22.025,49.7 22.241,49.7 Q 22.456,49.7 22.625,49.563 Q 22.794,49.403 22.897,49.183 Q 23,48.963 23,48.7 L 23,48.6 Q 23,48.375 22.911,48.159 Q 22.822,47.944 22.662,47.775 Q 22.503,47.606 22.283,47.503 Q 22.063000000000002,47.4 21.8,47.4" fill="rgb(120, 120, 120)" stroke="rgb(120, 120, 120)" stroke-width="1" stroke-linecap="round" stroke-linejoin="round"/><path d="M 47.9,47.8 Q 47.863,47.725 47.825,47.666 Q 47.788,47.606 47.75,47.55 Q 47.712,47.494 47.675,47.434 Q 47.637,47.375 47.6,47.3 L 43.1,42.8 Q 42.912,42.612 42.694,42.519 Q 42.475,42.425 42.25,42.575 Q 42.025,42.425 41.806,42.519 Q 41.587,42.612 41.4,42.8 L 41.3,42.9 Q 41.112,43.088 41.033,43.306 Q 40.953,43.525 40.962,43.75 Q 40.972,43.975 41.061,44.194 Q 41.15,44.413 41.3,44.6 L 43.7,47 L 36.2,47 Q 35.938,47.037 35.717,47.147 Q 35.497,47.256 35.338,47.425 Q 35.178,47.594 35.089,47.816 Q 35,48.037 35,48.3 L 35,48.4 Q 35,48.662 35.089,48.883 Q 35.178,49.103 35.338,49.262 Q 35.497,49.422 35.717,49.511 Q 35.938,49.6 36.2,49.6 L 44.2,49.6 L 41.3,52.4 Q 41.112,52.588 41.019,52.806 Q 40.925,53.025 40.925,53.25 Q 40.925,53.475 41.019,53.694 Q 41.112,53.912 41.3,54.1 L 41.4,54.2 Q 41.587,54.387 41.806,54.481 Q 42.025,54.575 42.25,54.575 Q 42.475,54.575 42.694,54.481 Q 42.912,54.387 43.1,54.2 L 47.7,49.5 Q 47.775,49.425 47.831,49.316 Q 47.887,49.206 47.925,49.075 Q 47.963,48.944 47.981,48.797 Q 48,48.65 48,48.5 Q 48,48.425 47.998,48.334 Q 47.997,48.244 47.988,48.15 Q 47.978,48.056 47.958,47.966 Q 47.938,47.875 47.9,47.8" fill="rgb(120, 120, 120)" stroke="rgb(120, 120, 120)" stroke-width="1" stroke-linecap="round" stroke-linejoin="round"/><path d="M 74.2,44.7 Q 73.26,43.39 71.93,42.61 Q 70.61,41.83 69.13,41.6 Q 67.64,41.37 66.13,41.72 Q 64.61,42.06 63.3,43 Q 61.99,43.97 61.18,45.34 Q 60.37,46.71 60.11,48.22 Q 59.86,49.74 60.19,51.3 Q 60.52,52.85 61.5,54.2 Q 62.48,55.55 63.82,56.37 Q 65.17,57.18 66.66,57.44 Q 68.15,57.69 69.67,57.36 Q 71.19,57.04 72.5,56.1 Q 72.95,55.76 73.36,55.37 Q 73.77,54.980000000000004 74.11,54.54 Q 74.46000000000001,54.1 74.74,53.61 Q 75.01,53.13 75.2,52.6 L 73.7,52 Q 73.55,52.41 73.33,52.8 Q 73.11,53.19 72.82,53.55 Q 72.53999999999999,53.91 72.21000000000001,54.22 Q 71.88,54.54 71.5,54.8 Q 70.45,55.55 69.22,55.82 Q 68,56.08 66.8,55.89 Q 65.6,55.69 64.52,55.04 Q 63.45,54.39 62.7,53.3 Q 61.95,52.21 61.7,50.97 Q 61.44,49.72 61.65,48.5 Q 61.86,47.28 62.5,46.18 Q 63.15,45.09 64.2,44.3 Q 65.25,43.55 66.45,43.28 Q 67.64,43.01 68.81,43.2 Q 69.98,43.39 71.05,44.02 Q 72.11,44.65 72.9,45.7 L 71.2,47 L 73.4,47.5 L 75.6,48 L 75.8,45.8 L 76,43.4 L 74.2,44.7 L 74.2,44.7" fill="rgb(120, 120, 120)" stroke="rgb(120, 120, 120)" stroke-width="1" stroke-linecap="round" stroke-linejoin="round"/><path d="M 1170.01953125,40 L 1185.01953125,40 M 1170.01953125,47 L 1185.01953125,47 M 1170.01953125,54 L 1185.01953125,54" fill="none" stroke="rgb(120, 120, 120)" stroke-width="4" stroke-linecap="round" stroke-linejoin="round"/></g><g transform="translate(227, 74.95) rotate(0, 0, 0)" width="187" height="19"><text text-decoration="none" x="0" fill="#000000" font-size="11pt" font-family="Lato"  y="15">http://www.creately.com&#160;</text><text text-decoration="none" x="170" fill="#4b4b4b" font-size="10pt" font-family="noto_regular"  y="15"></text></g></g><g id="1gi2ggiwfr"><g transform="translate(135 134.9)"><path d="M 2.9875,0.5 L 1192.0124999999998,0.5 L 1192.0124999999998,2.5 L 2.9875,2.5 Z" fill="rgb(204, 204, 204)" stroke="rgb(204, 204, 204)" stroke-width="1" vector-effect="non-scaling-stroke"/></g></g><g id="1dzkjm3qyy"><g transform="translate(1088.15 104.9)"><path d="M 0,0 L 80,0 L 80,25 L 0,25 Z" fill="rgb(255, 255, 255)" stroke="rgb(137, 137, 137)" stroke-width="0.5"/></g><g transform="translate(1103.4, 105.7) rotate(0, 0, 0)" width="47" height="19"><text text-decoration="none" x="0" fill="#262626" font-size="9pt" font-family="Lato"  y="15">Sign&#160;</text><text text-decoration="none" x="27" fill="#262626" font-size="9pt" font-family="Lato"  y="15">In&#160;</text><text text-decoration="none" x="40" fill="#4b4b4b" font-size="10pt" font-family="noto_regular"  y="15"></text></g></g><g id="6ssc5vh2jc"><g transform="translate(1160 101.3)"><rect x="0" y="0" width="64.99998718500137" height="34.749603271484375" fill="rgba(255,255,255,0.01)" stroke="rgba(255,255,255,0.01)" stroke-width="NaN" stroke-linecap="round" stroke-linejoin="round"/></g><g transform="translate(1173.4999935925007, 109.1748016357422) rotate(0, 19, 9.5)" width="38" height="19"><text text-decoration="none" x="2.5" fill="rgb(75, 75, 75)" font-size="9pt" font-family="Lato"  y="15">Log&#160;</text><text text-decoration="none" x="25.5" fill="rgb(75, 75, 75)" font-size="9pt" font-family="Lato"  y="15">In</text><text text-decoration="none" x="35.5" fill="#4b4b4b" font-size="10pt" font-family="noto_regular"  y="15"></text></g></g><g id="k1faxmk65y"><g transform="translate(1280 109.9)"><path d="M 16.13335689306259,0.06000008583068848 L 15.666689544916153,1.9200027465820313 L 0.2666670560836792,1.9200027465820313 L 2.5333370327949525,10.320014762878417 L 13.40001956820488,10.320014762878417 L 13.133352512121203,11.340016222000122 L 2.7333373248577115,11.340016222000122 L 2.7333373248577115,12.420017766952514 L 4.000005841255188,12.420017766952514 C 3.8000055491924285,12.660018110275267 3.666672021150589,12.96001853942871 3.666672021150589,13.32001905441284 C 3.666672021150589,14.100020170211792 4.333339661359787,14.760021114349364 5.200007593631744,14.760021114349364 C 6.066675525903702,14.760021114349364 6.7333431661129,14.10002017021179 6.7333431661129,13.32001905441284 C 6.7333431661129,12.96001853942871 6.60000963807106,12.660018110275267 6.400009346008301,12.420017766952514 L 11.066682827472688,12.420017766952514 C 10.800015771389008,12.60001802444458 10.666682243347168,12.900018453598022 10.666682243347168,13.260018968582154 C 10.666682243347168,14.040020084381105 11.333349883556366,14.700021028518677 12.200017815828323,14.700021028518677 C 13.066685748100282,14.700021028518677 13.73335338830948,14.040020084381103 13.73335338830948,13.260018968582154 C 13.73335338830948,12.900018453598022 13.60001986026764,12.60001802444458 13.40001956820488,12.360017681121827 L 14.066687208414079,12.360017681121827 L 14.600021320581437,10.32001476287842 L 14.666688084602356,10.32001476287842 L 16.66669100522995,2.580003690719606 L 17.066691589355468,1.1400016307830827 L 19.73336215019226,1.1400016307830827 L 19.73336215019226,0.06000008583068848 L 16.13335689306259,0.06000008583068848 Z M 1.7333358645439148,3.000004291534424 L 3.8000055491924285,3.000004291534424 L 4.066672605276108,4.380006265640259 L 2.1333364486694335,4.380006265640259 L 1.7333358645439148,3.000004291534424 Z M 2.400003504753113,5.460007810592651 L 4.200006133317948,5.460007810592651 L 4.400006425380707,6.720009613037109 L 2.7333373248577115,6.720009613037109 L 2.400003504753113,5.460007810592651 Z M 3.4666717290878295,9.240013217926025 L 3.0666711449623105,7.800011157989502 L 4.666673481464386,7.800011157989502 L 4.933340537548065,9.300013303756714 L 3.4666717290878295,9.300013303756714 Z M 7.733344626426697,9.240013217926025 L 6.000008761882782,9.240013217926025 L 5.733341705799103,7.800011157989502 L 7.666677862405777,7.800011157989502 L 7.666677862405777,9.240013217926025 Z M 7.733344626426697,6.720009613037109 L 5.600008177757263,6.720009613037109 L 5.333341121673584,5.460007810592651 L 7.666677862405777,5.460007810592651 L 7.666677862405777,6.720009613037109 Z M 7.733344626426697,4.380006265640259 L 5.200007593631744,4.380006265640259 L 4.933340537548065,3.000004291534424 L 7.733344626426698,3.000004291534424 L 7.733344626426698,4.380006265640259 Z M 10.933349299430846,9.240013217926025 L 8.800012850761414,9.240013217926025 L 8.800012850761414,7.800011157989502 L 11.200016355514526,7.800011157989502 L 10.933349299430846,9.240013217926025 Z M 11.333349883556366,6.720009613037109 L 8.800012850761414,6.720009613037109 L 8.800012850761414,5.460007810592651 L 11.533350175619123,5.460007810592651 L 11.333349883556366,6.720009613037109 Z M 11.733350467681886,4.380006265640259 L 8.800012850761414,4.380006265640259 L 8.800012850761414,3.000004291534424 L 12.000017523765564,3.000004291534424 L 11.733350467681886,4.380006265640259 Z M 13.73335338830948,9.240013217926025 L 12.066684287786485,9.240013217926025 L 12.333351343870163,7.740011072158814 L 14.133353972434998,7.740011072158814 L 13.73335338830948,9.240013217926025 Z M 14.400021028518678,6.720009613037109 L 12.466684871912005,6.720009613037109 L 12.666685163974764,5.460007810592651 L 14.666688084602358,5.460007810592651 L 14.400021028518678,6.720009613037109 Z M 15.000021904706955,4.380006265640259 L 12.866685456037521,4.380006265640259 L 13.133352512121201,3.000004291534424 L 15.400022488832473,3.000004291534424 L 15.000021904706955,4.380006265640259 Z" fill="rgb(126, 126, 126)"/></g></g><g id="wdhtuhx5dv"><g transform="translate(1240 110)"><path d="M 13.466685128211974,10.920014536380767 C 13.133351337909698,10.620014137029647 12.866684305667878,10.20001357793808 12.866684305667878,9.720012938976287 L 12.600017273426058,4.920006549358368 C 12.600017273426058,2.8800038337707514 10.666681289672853,1.2600016772747038 8.200011241436007,1.0200013577938076 C 8.200011241436007,0.9000011980533595 8.200011241436007,0.8400011181831355 8.200011241436007,0.6600008785724635 C 8.200011241436007,0.36000047922134354 7.933344209194185,0.060000079870223516 7.533343660831453,0.060000079870223516 C 7.133343112468721,0.060000079870223516 6.8666760802269,0.30000039935111955 6.8666760802269,0.6600008785724635 C 6.8666760802269,0.7800010383129115 6.8666760802269,0.9000011980533594 6.8666760802269,1.0200013577938076 C 4.266672515869141,1.20000159740448 2.4000032901763917,2.880003833770752 2.4000032901763917,4.920006549358368 L 2.1333362579345705,9.720012938976287 C 2.1333362579345705,10.20001357793808 1.9333359837532045,10.620014137029647 1.5333354353904727,10.920014536380767 L 0,12.240016293525695 L 0,12.840017092227935 L 15.000020563602448,12.840017092227935 L 15.000020563602448,12.240016293525695 L 13.466685128211974,10.920014536380767 Z M 1.0000013709068298,12.240016293525695 L 2.0000027418136597,11.340015095472335 C 2.466670048236847,10.920014536380767 2.733337080478668,10.320013737678527 2.8000038385391237,9.720012938976287 L 3.0666708707809454,4.920006549358368 L 3.0666708707809454,4.920006549358368 L 3.0666708707809454,4.920006549358368 C 3.0666708707809454,3.0600040733814238 5.066673612594605,1.5600020766258238 7.466676902770995,1.5600020766258238 C 9.866680192947387,1.5600020766258238 11.866682934761046,3.0600040733814238 11.866682934761046,4.920006549358368 L 11.866682934761046,4.920006549358368 L 11.866682934761046,4.920006549358368 L 12.133349967002866,9.720012938976287 C 12.200016725063323,10.320013737678527 12.400016999244686,10.860014456510543 12.93335106372833,11.340015095472335 L 13.93335243463516,12.240016293525695 L 1.0000013709068298,12.240016293525695 Z" fill="rgb(160, 160, 160)" stroke="rgb(137, 137, 137)"/><path d="M 7.466676902770995,15.000019967556 C 8.40001151561737,15.000019967556 9.133345854282378,14.340019088983535 9.133345854282378,13.5000179708004 L 5.800007951259612,13.5000179708004 C 5.800007951259612,14.340019088983535 6.533342289924622,15.000019967556 7.466676902770995,15.000019967556 Z" fill="rgb(160, 160, 160)" stroke="rgb(137, 137, 137)"/></g></g><g id="7xmcmi2kwp"><g transform="translate(135 138)"><rect x="0" y="0" width="1195.0499725341797" height="65.04812300205231" fill="rgba(235,235,235,1)" stroke="#ebebeb" stroke-width="1.5" stroke-linecap="round" stroke-linejoin="round"/></g></g><g id="2il5mojxp2"><g transform="translate(160 139.9)"><rect x="0" y="0" width="75.09974241256714" height="59.50961744785309" fill="rgba(255,255,255,0.01)" stroke="rgba(255,255,255,0.01)" stroke-width="NaN" stroke-linecap="round" stroke-linejoin="round"/></g><g transform="translate(171.54987120628357, 159.65480872392655) rotate(0, 26, 10)" width="52" height="20"><text text-decoration="none" x="3.5" fill="rgb(137, 137, 137)" font-weight="bold" font-size="13pt" font-family="Lato"  y="16">LOGO</text><text text-decoration="none" x="48.5" fill="#4b4b4b" font-size="10pt" font-family="noto_regular"  y="16"></text></g></g><g id="2ikv6q06w4"><g transform="translate(370 159.95)"><path d="M 0.75,0.75 L 149.25,0.75 L 149.25,24.25 L 0.75,24.25 Z" fill="rgb(255, 255, 255)" stroke="rgb(204, 204, 204)" stroke-width="1.5" stroke-linecap="round" stroke-linejoin="round"/><path d="M 137,10.5 L 143,10.5 L 140,14 L 137,10.5" fill="rgb(92, 92, 92)" stroke="rgb(204, 204, 204)" stroke-width="1.5" stroke-linecap="round" stroke-linejoin="round"/></g><g transform="translate(373.3, 160.95) rotate(0, 0, 0)" width="73" height="19"><text text-decoration="none" x="0" fill="#4b4b4b" font-size="11pt" font-family="Lato"  y="15">Category&#160;</text><text text-decoration="none" x="64" fill="#4b4b4b" font-size="10pt" font-family="noto_regular"  y="15"></text></g></g><g id="6mtrcdb0e8"><g transform="translate(850.35 160.25)"><path d="M 0,0 L 124.75399169921874,0 L 124.75399169921874,25 L 0,25 Z" fill="rgb(54, 115, 182)"  stroke-width="0.5"/></g><g transform="translate(888.0499995388875, 161.05) rotate(0, 0, 0)" width="46" height="19"><text text-decoration="none" x="0" fill="#ffffff" font-size="9pt" font-family="Lato"  y="15">Search&#160;</text><text text-decoration="none" x="40" fill="#4b4b4b" font-size="10pt" font-family="noto_regular"  y="15"></text></g></g><g id="22f94khp1t"><g transform="translate(525 160)"><path d="M 0.75,0.75 L 320.25613861083986,0.75 L 320.25613861083986,24.75 L 0.75,24.75 Z" fill="rgb(255, 255, 255)" stroke="rgb(204, 204, 204)" stroke-width="1.5" stroke-linecap="round" stroke-linejoin="round"/></g><g transform="translate(531.5, 162.25) rotate(0, 0, 0)" width="90" height="19"><text text-decoration="none" x="0" fill="#4b4b4b" font-size="11pt" font-family="Lato"  y="15">Search&#160;</text><text text-decoration="none" x="50" fill="#4b4b4b" font-size="11pt" font-family="Lato"  y="15">Box&#160;</text><text text-decoration="none" x="79" fill="#4b4b4b" font-size="10pt" font-family="noto_regular"  y="15"></text></g></g><g id="2jc8pqp9tg"><g transform="translate(974.95 154.85)"><rect x="0" y="0" width="70.0491338968277" height="32.34959411621094" fill="rgba(255,255,255,0.01)" stroke="rgba(255,255,255,0.01)" stroke-width="NaN" stroke-linecap="round" stroke-linejoin="round"/></g><g transform="translate(983.9745669484139, 161.52479705810546) rotate(0, 26, 9.5)" width="52" height="19"><text text-decoration="none" x="2.5" fill="rgb(0, 114, 188)" font-size="9pt" font-family="Lato"  y="15">Advance</text><text text-decoration="none" x="49.5" fill="#4b4b4b" font-size="10pt" font-family="noto_regular"  y="15"></text></g></g><g id="5h8mve2p0a"><g transform="translate(135 199.85)"><path d="M 2.9876251220703125,0.5 L 1192.0624237060547,0.5 L 1192.0624237060547,2.5 L 2.9876251220703125,2.5 Z" fill="rgb(204, 204, 204)" stroke="rgb(204, 204, 204)" stroke-width="1" vector-effect="non-scaling-stroke"/></g></g><g id="15x4bbecnj"><g transform="translate(135 254.9)"><path d="M 2.9876251220703125,0.5 L 1192.0624237060547,0.5 L 1192.0624237060547,2.5 L 2.9876251220703125,2.5 Z" fill="rgb(204, 204, 204)" stroke="rgb(204, 204, 204)" stroke-width="1" vector-effect="non-scaling-stroke"/></g></g><g id="2mp8l9fe7a"><g transform="translate(240 206.45)"><path d="M 141.13334667205814,0.75 L 141.13334667205814,44 M 301.4416933441163,0.75 L 301.4416933441163,44 M 481.3000400161744,0.75 L 481.3000400161744,44 M 613.3083866882325,0.75 L 613.3083866882325,44 M 825.7167333602906,0.75 L 825.7167333602906,44" fill="rgb(255, 255, 255)" stroke="rgb(204, 204, 204)" stroke-width="1.5" stroke-linejoin="round"/><path d="M 0.75,0.75 L 974.3000800323487,0.75 L 974.3000800323487,44.75 L 0.75,44.75 Z" fill="rgb(255, 255, 255)" stroke="rgb(204, 204, 204)" stroke-width="1.5" stroke-linejoin="round"/></g><g transform="translate(296.2000028246654, 220.79999999999998) rotate(0, 0, 0)" width="37" height="19"><text text-decoration="none" x="0" fill="#4b4b4b" font-size="11pt" font-family="Lato"  y="15">New&#160;</text><text text-decoration="none" x="34" fill="#4b4b4b" font-size="10pt" font-family="noto_regular"  y="15"></text></g><g transform="translate(437.7000099365897, 220.79999999999998) rotate(0, 0, 0)" width="63" height="19"><text text-decoration="none" x="0" fill="#4b4b4b" font-size="11pt" font-family="Lato"  y="15">Fashion&#160;</text><text text-decoration="none" x="57" fill="#4b4b4b" font-size="10pt" font-family="noto_regular"  y="15"></text></g><g transform="translate(598.00001799342, 220.79999999999998) rotate(0, 0, 0)" width="86" height="19"><text text-decoration="none" x="0" fill="#4b4b4b" font-size="11pt" font-family="Lato"  y="15">Electronics&#160;</text><text text-decoration="none" x="80" fill="#4b4b4b" font-size="10pt" font-family="noto_regular"  y="15"></text></g><g transform="translate(777.8500270328518, 220.79999999999998) rotate(0, 0, 0)" width="27" height="19"><text text-decoration="none" x="0" fill="#4b4b4b" font-size="11pt" font-family="Lato"  y="15">Art&#160;</text><text text-decoration="none" x="24" fill="#4b4b4b" font-size="10pt" font-family="noto_regular"  y="15"></text></g><g transform="translate(909.8500336672971, 220.79999999999998) rotate(0, 0, 0)" width="127" height="19"><text text-decoration="none" x="0" fill="#4b4b4b" font-size="11pt" font-family="Lato"  y="15">Home&#160;</text><text text-decoration="none" x="45" fill="#4b4b4b" font-size="11pt" font-family="Lato"  y="15">&#x26;&#160;</text><text text-decoration="none" x="58" fill="#4b4b4b" font-size="11pt" font-family="Lato"  y="15">Garden&#160;</text><text text-decoration="none" x="109" fill="#4b4b4b" font-size="10pt" font-family="noto_regular"  y="15"></text></g><g transform="translate(1122.250044342723, 220.79999999999998) rotate(0, 0, 0)" width="48" height="19"><text text-decoration="none" x="0" fill="#4b4b4b" font-size="11pt" font-family="Lato"  y="15">Other&#160;</text><text text-decoration="none" x="40" fill="#4b4b4b" font-size="10pt" font-family="noto_regular"  y="15"></text></g></g><g id="cd8wc1p2s4"><g transform="translate(175 280)"><rect x="0" y="0" width="805.0500583648682" height="370.0257968902588" fill="rgba(255,255,255,1)" stroke="#898989" stroke-width="1.5" stroke-linecap="round" stroke-linejoin="round"/></g></g><g id="4fygyvo1xf"><g transform="translate(994.95 280)"><rect x="0" y="0" width="290.1000237464905" height="205.0206971168518" fill="rgba(255,255,255,1)" stroke="#898989" stroke-width="1.5" stroke-linecap="round" stroke-linejoin="round"/></g></g><g id="1oaq6qqj52"><g transform="translate(995.05 500)"><rect x="0" y="0" width="290.05001068115234" height="150.0151562690735" fill="rgba(255,255,255,1)" stroke="#898989" stroke-width="1.5" stroke-linecap="round" stroke-linejoin="round"/></g></g><g id="81wgnghkk0"><g transform="translate(205 319.9)"><rect x="0" y="0" width="169.9999988079071" height="85.99948120117188" fill="rgba(255,255,255,0.01)" stroke="rgba(255,255,255,0.01)" stroke-width="NaN" stroke-linecap="round" stroke-linejoin="round"/></g><g transform="translate(219.99999940395355, 347.8997406005859) rotate(0, 70, 15)" width="140" height="30"><text text-decoration="none" x="7" fill="rgb(125, 125, 125)" font-size="19pt" font-family="Lato"  y="23">HEADING&#160;</text><text text-decoration="none" x="119" fill="rgb(125, 125, 125)" font-size="19pt" font-family="Lato"  y="23">1</text><text text-decoration="none" x="133" fill="#4b4b4b" font-size="10pt" font-family="noto_regular"  y="23"></text></g></g><g id="12vfls01jx"><g transform="translate(215 444.9)"><path d="M 0,0 L 210.04999160766602,0 L 210.04999160766602,45.016372203826904 L 0,45.016372203826904 Z" fill="rgb(255, 255, 255)" stroke="rgb(137, 137, 137)" stroke-width="0.5"/></g><g transform="translate(294.9, 455.7) rotate(0, 0, 0)" width="45" height="19"><text text-decoration="none" x="0" fill="#262626" font-size="9pt" font-family="Lato"  y="15">Button&#160;</text><text text-decoration="none" x="39" fill="#4b4b4b" font-size="10pt" font-family="noto_regular"  y="15"></text></g></g><g id="1pdfvnvxe7"><g transform="translate(660 320)"><rect x="0" y="0" width="135.05000114440918" height="135.0136363506317" fill="rgba(255,255,255,1)" stroke="#cccccc" stroke-width="1.5" stroke-linecap="round" stroke-linejoin="round"/></g></g><g id="25rk0xk9bs"><g transform="translate(660 470)"><rect x="0" y="0" width="135.0499963760376" height="135.0136363506317" fill="rgba(255,255,255,1)" stroke="#cccccc" stroke-width="1.5" stroke-linecap="round" stroke-linejoin="round"/></g></g><g id="1vliv9scou"><g transform="translate(810 320)"><rect x="0" y="0" width="135.05000114440918" height="285.02082109451294" fill="rgba(255,255,255,1)" stroke="#cccccc" stroke-width="1.5" stroke-linecap="round" stroke-linejoin="round"/></g></g><g id="13ey117l1j"><g transform="translate(684.95 349.95)"><path d="M 0,0 L 85.05000114440918,0 L 85.05000114440918,75.00568628311157 L 0,75.00568628311157 Z" fill="rgb(255, 255, 255)" stroke="rgb(204, 204, 204)" stroke-width="1.5" stroke-miterlimit="10" vector-effect="non-scaling-stroke"/><path d="M 65.27587587833405,52.56648513674735 L 19.774125266075135,52.56648513674735 L 19.774125266075135,22.439201146364212 L 65.20500087738037,22.439201146364212 L 65.20500087738037,52.56648513674735 Z M 21.971250295639038,50.691342979669564 L 63.07875084877014,50.691342979669564 L 63.07875084877014,24.314343303442 L 21.971250295639038,24.314343303442 L 21.971250295639038,50.691342979669564 Z" fill="rgb(204, 204, 204)" stroke="rgb(204, 204, 204)" stroke-width="1.5"/><path d="M 29.129625391960143,46.566030234098434 L 56.8417507648468,46.566030234098434 L 50.746500682830806,33.44003513455391 L 45.643500614166264,41.75316536426544 L 41.036625552177426,36.50276732444763 L 36.99675049781799,42.87825065851211 L 33.027750444412234,40.00303268432617 Z" fill="rgb(204, 204, 204)" stroke="rgb(204, 204, 204)" stroke-width="1.5"/><path d="M 29.129625391960143,33.12751144170761 C 29.129625319614117,35.58143612113168 32.141812814929004,37.11513911460532 34.55156288352694,35.88817683014748 C 35.669931840596746,35.31874162260685 36.358875522810834,34.26638190807598 36.358875489234926,33.12751144170761 C 36.35887556158095,30.67358676228354 33.34668806626607,29.139883768809902 30.936937997668128,30.366846053267746 C 29.818569040598323,30.936281260808368 29.129625358384235,31.988640975339244 29.129625391960143,33.12751144170761" fill="rgb(204, 204, 204)" stroke="rgb(204, 204, 204)" stroke-width="1.5"/></g></g><g id="51eml6o1k7"><g transform="translate(684.95 499.95)"><path d="M 0,0 L 85.05000114440918,0 L 85.05000114440918,75.00568628311157 L 0,75.00568628311157 Z" fill="rgb(255, 255, 255)" stroke="rgb(204, 204, 204)" stroke-width="1.5" stroke-miterlimit="10" vector-effect="non-scaling-stroke"/><path d="M 65.27587587833405,52.56648513674735 L 19.774125266075135,52.56648513674735 L 19.774125266075135,22.439201146364212 L 65.20500087738037,22.439201146364212 L 65.20500087738037,52.56648513674735 Z M 21.971250295639038,50.691342979669564 L 63.07875084877014,50.691342979669564 L 63.07875084877014,24.314343303442 L 21.971250295639038,24.314343303442 L 21.971250295639038,50.691342979669564 Z" fill="rgb(204, 204, 204)" stroke="rgb(204, 204, 204)" stroke-width="1.5"/><path d="M 29.129625391960143,46.566030234098434 L 56.8417507648468,46.566030234098434 L 50.746500682830806,33.44003513455391 L 45.643500614166264,41.75316536426544 L 41.036625552177426,36.50276732444763 L 36.99675049781799,42.87825065851211 L 33.027750444412234,40.00303268432617 Z" fill="rgb(204, 204, 204)" stroke="rgb(204, 204, 204)" stroke-width="1.5"/><path d="M 29.129625391960143,33.12751144170761 C 29.129625319614117,35.58143612113168 32.141812814929004,37.11513911460532 34.55156288352694,35.88817683014748 C 35.669931840596746,35.31874162260685 36.358875522810834,34.26638190807598 36.358875489234926,33.12751144170761 C 36.35887556158095,30.67358676228354 33.34668806626607,29.139883768809902 30.936937997668128,30.366846053267746 C 29.818569040598323,30.936281260808368 29.129625358384235,31.988640975339244 29.129625391960143,33.12751144170761" fill="rgb(204, 204, 204)" stroke="rgb(204, 204, 204)" stroke-width="1.5"/></g></g><g id="3vbst9bgio"><g transform="translate(834.95 409.9)"><path d="M 0,0 L 85.05000114440918,0 L 85.05000114440918,75.00568628311157 L 0,75.00568628311157 Z" fill="rgb(255, 255, 255)" stroke="rgb(204, 204, 204)" stroke-width="1.5" stroke-miterlimit="10" vector-effect="non-scaling-stroke"/><path d="M 65.27587587833405,52.56648513674735 L 19.774125266075135,52.56648513674735 L 19.774125266075135,22.439201146364212 L 65.20500087738037,22.439201146364212 L 65.20500087738037,52.56648513674735 Z M 21.971250295639038,50.691342979669564 L 63.07875084877014,50.691342979669564 L 63.07875084877014,24.314343303442 L 21.971250295639038,24.314343303442 L 21.971250295639038,50.691342979669564 Z" fill="rgb(204, 204, 204)" stroke="rgb(204, 204, 204)" stroke-width="1.5"/><path d="M 29.129625391960143,46.566030234098434 L 56.8417507648468,46.566030234098434 L 50.746500682830806,33.44003513455391 L 45.643500614166264,41.75316536426544 L 41.036625552177426,36.50276732444763 L 36.99675049781799,42.87825065851211 L 33.027750444412234,40.00303268432617 Z" fill="rgb(204, 204, 204)" stroke="rgb(204, 204, 204)" stroke-width="1.5"/><path d="M 29.129625391960143,33.12751144170761 C 29.129625319614117,35.58143612113168 32.141812814929004,37.11513911460532 34.55156288352694,35.88817683014748 C 35.669931840596746,35.31874162260685 36.358875522810834,34.26638190807598 36.358875489234926,33.12751144170761 C 36.35887556158095,30.67358676228354 33.34668806626607,29.139883768809902 30.936937997668128,30.366846053267746 C 29.818569040598323,30.936281260808368 29.129625358384235,31.988640975339244 29.129625391960143,33.12751144170761" fill="rgb(204, 204, 204)" stroke="rgb(204, 204, 204)" stroke-width="1.5"/></g></g><g id="tvcv2npasz"><g transform="translate(1014.95 299.9)"><rect x="0" y="0" width="139.9565041065216" height="50.99977111816406" fill="rgba(255,255,255,0.01)" stroke="rgba(255,255,255,0.01)" stroke-width="NaN" stroke-linecap="round" stroke-linejoin="round"/></g><g transform="translate(1023.4282520532608, 311.399885559082) rotate(0, 61.5, 14)" width="123" height="28"><text text-decoration="none" x="7.5" fill="rgb(137, 137, 137)" font-size="18pt" font-family="Lato"  y="22">Heading&#160;</text><text text-decoration="none" x="102.5" fill="rgb(137, 137, 137)" font-size="18pt" font-family="Lato"  y="22">2</text><text text-decoration="none" x="115.5" fill="#4b4b4b" font-size="10pt" font-family="noto_regular"  y="22"></text></g></g><g id="23pgs3ryml"><g transform="translate(1025 354.9)"><path d="M 0,0 L 80,0 L 80,25 L 0,25 Z" fill="rgb(255, 255, 255)" stroke="rgb(137, 137, 137)" stroke-width="0.5"/></g><g transform="translate(1039.9, 355.7) rotate(0, 0, 0)" width="45" height="19"><text text-decoration="none" x="0" fill="#262626" font-size="9pt" font-family="Lato"  y="15">Button&#160;</text><text text-decoration="none" x="39" fill="#4b4b4b" font-size="10pt" font-family="noto_regular"  y="15"></text></g></g><g id="1z3g9q2jcv"><g transform="translate(1180 384.9)"><path d="M 0,0 L 90.05000352859497,0 L 90.05000352859497,85.00644207000732 L 0,85.00644207000732 Z" fill="rgb(255, 255, 255)" stroke="rgb(204, 204, 204)" stroke-width="1.5" stroke-miterlimit="10" vector-effect="non-scaling-stroke"/><path d="M 69.11337770819664,59.57534815073013 L 20.93662582039833,59.57534815073013 L 20.93662582039833,25.431093919277192 L 69.03833603858948,25.431093919277192 L 69.03833603858948,59.57534815073013 Z M 23.262917578220367,57.450187098979946 L 66.7870859503746,57.450187098979946 L 66.7870859503746,27.556254971027375 L 23.262917578220367,27.556254971027375 L 23.262917578220367,57.450187098979946 Z" fill="rgb(204, 204, 204)" stroke="rgb(204, 204, 204)" stroke-width="1.5"/><path d="M 30.842126208543778,52.77483278512955 L 60.18341902494431,52.77483278512955 L 53.72983543872833,37.898705422878265 L 48.32683522701264,47.32025275230408 L 43.44912670254707,41.36980180740356 L 39.171751534938814,48.59534938335418 L 34.96941803693772,45.336769104003906 Z" fill="rgb(204, 204, 204)" stroke="rgb(204, 204, 204)" stroke-width="1.5"/><path d="M 30.842126208543778,37.544511914253235 C 30.8421261319446,40.325626472931596 34.031397042374515,42.06382315011698 36.58281384731763,40.673265933399215 C 37.7669305689554,40.02790604962033 38.49637654402415,38.83523173993641 38.49637650847435,37.544511914253235 C 38.49637658507353,34.763397355574874 35.307105674643616,33.02520067838949 32.7556888697005,34.415757895107255 C 31.571572148062728,35.06111777888614 30.842126172993975,36.25379208857006 30.842126208543778,37.544511914253235" fill="rgb(204, 204, 204)" stroke="rgb(204, 204, 204)" stroke-width="1.5"/></g></g><g id="4hizz6nd1k"><g transform="translate(1019.95 514.9)"><rect x="0" y="0" width="129.99801635742188" height="40.28977966308594" fill="rgba(255,255,255,0.01)" stroke="rgba(255,255,255,0.01)" stroke-width="NaN" stroke-linecap="round" stroke-linejoin="round"/></g><g transform="translate(1031.449008178711, 522.544889831543) rotate(0, 53.5, 12.5)" width="107" height="25"><text text-decoration="none" x="6" fill="rgb(137, 137, 137)" font-size="16pt" font-family="Lato"  y="20">Heading&#160;</text><text text-decoration="none" x="89" fill="rgb(137, 137, 137)" font-size="16pt" font-family="Lato"  y="20">3</text><text text-decoration="none" x="101" fill="#4b4b4b" font-size="10pt" font-family="noto_regular"  y="20"></text></g></g><g id="42s9t6ba7j"><g transform="translate(1025 539.9)"><rect x="0" y="0" width="199.99923706054688" height="70.99984741210938" fill="rgba(255,255,255,0.01)" stroke="rgba(255,255,255,0.01)" stroke-width="NaN" stroke-linecap="round" stroke-linejoin="round"/></g><g transform="translate(1027.4996185302734, 556.3999237060547) rotate(0, 97.5, 19)" width="195" height="38"><text text-decoration="underline" x="64.5" fill="rgb(62, 157, 215)" font-size="12pt" font-family="Lato"  y="15">Hyperlink</text><text text-decoration="underline" x="130.5" fill="rgb(62, 157, 215)" font-size="10pt" font-family="Lato"  y="15"></text><text text-decoration="none" x="11.5" fill="rgb(75, 75, 75)" font-size="9pt" font-family="Lato"  y="34">Hyperlink&#160;</text><text text-decoration="none" x="65.5" fill="rgb(75, 75, 75)" font-size="9pt" font-family="Lato"  y="34">description&#160;</text><text text-decoration="none" x="128.5" fill="rgb(75, 75, 75)" font-size="9pt" font-family="Lato"  y="34">goes&#160;</text><text text-decoration="none" x="157.5" fill="rgb(75, 75, 75)" font-size="9pt" font-family="Lato"  y="34">here.</text><text text-decoration="none" x="183.5" fill="#4b4b4b" font-size="10pt" font-family="noto_regular"  y="34"></text></g></g><g id="25se0pk47j"><g transform="translate(1240 604.9)"><path d="M 25.7,20.5 L 0,20.5 L 0,-0.1 L 25.7,-0.1 L 25.7,20.5 Z M 0.7,19.8 L 25,19.8 L 25,0.6 L 0.7,0.6 L 0.7,19.8 Z" fill="rgb(126, 126, 126)"/><path d="M 1.9,15.7 L 1.9,18.5 L 23.6,18.5 L 23.6,15.7 L 20.1,11.6 L 16.9,15.1 L 9.8,7.7 Z" fill="rgb(126, 126, 126)"/><path d="M 19.299999999999997,4.7 C 19.299999967668384,6.239600717839002 21.049999947461124,7.201851199961567 22.449999963626933,6.432050867708733 C 23.09974225831206,6.074785275885989 23.500000015005153,5.414531208397574 23.499999999999996,4.7 C 23.500000032331613,3.1603992821609985 21.750000052538873,2.1981488000384335 20.350000036373064,2.9679491322912672 C 19.70025774168794,3.325214724114011 19.29999998499484,3.985468791602426 19.299999999999997,4.7" fill="rgb(126, 126, 126)"/></g></g><g id="4tkv974axr"><g transform="translate(165 719.9)"><rect x="0" y="0" width="325.048828125" height="40.28977966308594" fill="rgba(255,255,255,0.01)" stroke="rgba(255,255,255,0.01)" stroke-width="NaN" stroke-linecap="round" stroke-linejoin="round"/></g><g transform="translate(171.5244140625, 727.544889831543) rotate(0, 156, 12.5)" width="312" height="25"><text text-decoration="none" x="18" fill="rgb(70, 70, 70)" font-size="16pt" font-family="Lato"  y="20">Featured&#160;</text><text text-decoration="none" x="106" fill="rgb(70, 70, 70)" font-size="16pt" font-family="Lato"  y="20">Collection&#160;</text><text text-decoration="none" x="205" fill="rgb(70, 70, 70)" font-size="16pt" font-family="Lato"  y="20">this&#160;</text><text text-decoration="none" x="245" fill="rgb(70, 70, 70)" font-size="16pt" font-family="Lato"  y="20">week</text><text text-decoration="none" x="294" fill="#4b4b4b" font-size="10pt" font-family="noto_regular"  y="20"></text></g></g><g id="2dw1k0gw4i"><g transform="translate(170.1 764.9)"><path d="M 2.79987548828125,0.5 L 1117.1503198242187,0.5 L 1117.1503198242187,2.5 L 2.79987548828125,2.5 Z" fill="rgb(204, 204, 204)" stroke="rgb(204, 204, 204)" stroke-width="1" vector-effect="non-scaling-stroke"/></g></g><g id="2hv8txgfy0"><g transform="translate(174.95 820)"><rect x="0" y="0" width="530.7391262054443" height="455.01980781555176" fill="rgba(255,255,255,1)" stroke="#898989" stroke-width="1.5" stroke-linecap="round" stroke-linejoin="round"/></g></g><g id="4pjvwgra3n"><g transform="translate(754.15 820)"><rect x="0" y="0" width="530.7391262054443" height="455.01980781555176" fill="rgba(255,255,255,1)" stroke="#898989" stroke-width="1.5" stroke-linecap="round" stroke-linejoin="round"/></g></g><g id="ptegm9qclc"><g transform="translate(525 824.85)"><path d="M 0.5000022053718567,1.1126835346221924 L 2.5000110268592834,1.1126835346221924 L 2.5000110268592834,443.96073031425476 L 0.5000022053718567,443.96073031425476 Z" fill="rgb(204, 204, 204)" stroke="rgb(204, 204, 204)" stroke-width="1" vector-effect="non-scaling-stroke"/></g></g><g id="ai56glyp38"><g transform="translate(529.9 967.75)"><path d="M 0.4376804828643799,0.5000022053718567 L 174.63451266288757,0.5000022053718567 L 174.63451266288757,2.5000110268592834 L 0.4376804828643799,2.5000110268592834 Z" fill="rgb(204, 204, 204)" stroke="rgb(204, 204, 204)" stroke-width="1" vector-effect="non-scaling-stroke"/></g></g><g id="6frjxbas5w"><g transform="translate(529.8 1127.75)"><path d="M 0.4251804053783417,0.5000022053718567 L 169.64698174595833,0.5000022053718567 L 169.64698174595833,2.5000110268592834 L 0.4251804053783417,2.5000110268592834 Z" fill="rgb(204, 204, 204)" stroke="rgb(204, 204, 204)" stroke-width="1" vector-effect="non-scaling-stroke"/></g></g><g id="19hf8k2aed"><g transform="translate(284.95 989.95)"><path d="M 0,0 L 120,0 L 120,120 L 0,120 Z" fill="rgb(255, 255, 255)" stroke="rgb(204, 204, 204)" stroke-width="1.5" stroke-miterlimit="10" vector-effect="non-scaling-stroke"/><path d="M 92.1,84.1 L 27.9,84.1 L 27.9,35.9 L 92,35.9 L 92,84.1 Z M 31,81.1 L 89,81.1 L 89,38.9 L 31,38.9 L 31,81.1 Z" fill="rgb(204, 204, 204)" stroke="rgb(204, 204, 204)" stroke-width="1.5"/><path d="M 41.1,74.5 L 80.2,74.5 L 71.6,53.5 L 64.4,66.8 L 57.9,58.4 L 52.2,68.6 L 46.6,64 Z" fill="rgb(204, 204, 204)" stroke="rgb(204, 204, 204)" stroke-width="1.5"/><path d="M 41.1,53 C 41.09999989792448,56.925981830489455 45.34999983412727,59.37972058467077 48.74999988516503,57.41672975782605 C 50.32794548237327,56.5057024972134 51.300000047373416,54.82205460327847 51.3,53 C 51.30000010207552,49.074018169510545 47.05000016587274,46.62027941532923 43.650000114834974,48.58327024217395 C 42.07205451762673,49.4942975027866 41.09999995262658,51.17794539672153 41.1,53" fill="rgb(204, 204, 204)" stroke="rgb(204, 204, 204)" stroke-width="1.5"/></g></g><g id="aa3f1rw5o0"><g transform="translate(555 834.9)"><path d="M 0,0 L 120,0 L 120,120 L 0,120 Z" fill="rgb(255, 255, 255)" stroke="rgb(204, 204, 204)" stroke-width="1.5" stroke-miterlimit="10" vector-effect="non-scaling-stroke"/><path d="M 92.1,84.1 L 27.9,84.1 L 27.9,35.9 L 92,35.9 L 92,84.1 Z M 31,81.1 L 89,81.1 L 89,38.9 L 31,38.9 L 31,81.1 Z" fill="rgb(204, 204, 204)" stroke="rgb(204, 204, 204)" stroke-width="1.5"/><path d="M 41.1,74.5 L 80.2,74.5 L 71.6,53.5 L 64.4,66.8 L 57.9,58.4 L 52.2,68.6 L 46.6,64 Z" fill="rgb(204, 204, 204)" stroke="rgb(204, 204, 204)" stroke-width="1.5"/><path d="M 41.1,53 C 41.09999989792448,56.925981830489455 45.34999983412727,59.37972058467077 48.74999988516503,57.41672975782605 C 50.32794548237327,56.5057024972134 51.300000047373416,54.82205460327847 51.3,53 C 51.30000010207552,49.074018169510545 47.05000016587274,46.62027941532923 43.650000114834974,48.58327024217395 C 42.07205451762673,49.4942975027866 41.09999995262658,51.17794539672153 41.1,53" fill="rgb(204, 204, 204)" stroke="rgb(204, 204, 204)" stroke-width="1.5"/></g></g><g id="4h1cnfs8wm"><g transform="translate(555 987.8)"><path d="M 0,0 L 120,0 L 120,120 L 0,120 Z" fill="rgb(255, 255, 255)" stroke="rgb(204, 204, 204)" stroke-width="1.5" stroke-miterlimit="10" vector-effect="non-scaling-stroke"/><path d="M 92.1,84.1 L 27.9,84.1 L 27.9,35.9 L 92,35.9 L 92,84.1 Z M 31,81.1 L 89,81.1 L 89,38.9 L 31,38.9 L 31,81.1 Z" fill="rgb(204, 204, 204)" stroke="rgb(204, 204, 204)" stroke-width="1.5"/><path d="M 41.1,74.5 L 80.2,74.5 L 71.6,53.5 L 64.4,66.8 L 57.9,58.4 L 52.2,68.6 L 46.6,64 Z" fill="rgb(204, 204, 204)" stroke="rgb(204, 204, 204)" stroke-width="1.5"/><path d="M 41.1,53 C 41.09999989792448,56.925981830489455 45.34999983412727,59.37972058467077 48.74999988516503,57.41672975782605 C 50.32794548237327,56.5057024972134 51.300000047373416,54.82205460327847 51.3,53 C 51.30000010207552,49.074018169510545 47.05000016587274,46.62027941532923 43.650000114834974,48.58327024217395 C 42.07205451762673,49.4942975027866 41.09999995262658,51.17794539672153 41.1,53" fill="rgb(204, 204, 204)" stroke="rgb(204, 204, 204)" stroke-width="1.5"/></g></g><g id="5sp61vcg62"><g transform="translate(555 1144.95)"><path d="M 0,0 L 120.00105857849121,0 L 120.00105857849121,120.00105857849121 L 0,120.00105857849121 Z" fill="rgb(255, 255, 255)" stroke="rgb(204, 204, 204)" stroke-width="1.5" stroke-miterlimit="10" vector-effect="non-scaling-stroke"/><path d="M 92.100812458992,84.10074188709258 L 27.900246119499204,84.10074188709258 L 27.900246119499204,35.90031669139862 L 92.00081157684326,35.90031669139862 L 92.00081157684326,84.10074188709258 Z M 31.00027346611023,81.1007154226303 L 89.00078511238098,81.1007154226303 L 89.00078511238098,38.9003431558609 L 31.00027346611023,38.9003431558609 L 31.00027346611023,81.1007154226303 Z" fill="rgb(204, 204, 204)" stroke="rgb(204, 204, 204)" stroke-width="1.5"/><path d="M 41.10036256313324,74.5006572008133 L 80.20070748329162,74.5006572008133 L 71.60063161849975,53.50047194957733 L 64.40056810379029,66.80058927536011 L 57.90051076412201,58.400515174865724 L 52.20046048164368,68.60060515403747 L 46.600411081314085,64.00056457519531 Z" fill="rgb(204, 204, 204)" stroke="rgb(204, 204, 204)" stroke-width="1.5"/><path d="M 41.10036256313324,53.00046753883362 C 41.10036246105682,56.926484002322425 45.350399888580604,59.380244402129314 48.75042993267607,57.41723625878569 C 50.32838944971156,56.50620096155752 51.30045258967883,54.82253821534386 51.30045254230499,53.00046753883362 C 51.300452644381416,49.07445107534481 47.05041521685763,46.62069067553792 43.650385172762164,48.583698818881544 C 42.072425655726676,49.49473411610972 41.10036251575941,51.178396862323375 41.10036256313324,53.00046753883362" fill="rgb(204, 204, 204)" stroke="rgb(204, 204, 204)" stroke-width="1.5"/></g></g><g id="1e3cpaxa8a"><g transform="translate(1105 819.9)"><path d="M 0.5000022053718567,1.1126835346221924 L 2.5000110268592834,1.1126835346221924 L 2.5000110268592834,443.96073031425476 L 0.5000022053718567,443.96073031425476 Z" fill="rgb(204, 204, 204)" stroke="rgb(204, 204, 204)" stroke-width="1" vector-effect="non-scaling-stroke"/></g></g><g id="2qf5dfljuw"><g transform="translate(1109.8 964.9)"><path d="M 0.4251804053783417,0.5000022053718567 L 169.64698174595833,0.5000022053718567 L 169.64698174595833,2.5000110268592834 L 0.4251804053783417,2.5000110268592834 Z" fill="rgb(204, 204, 204)" stroke="rgb(204, 204, 204)" stroke-width="1" vector-effect="non-scaling-stroke"/></g></g><g id="9kbbjdekv2"><g transform="translate(1109.95 1114.9)"><path d="M 0.4376804828643799,0.5000022053718567 L 174.63451266288757,0.5000022053718567 L 174.63451266288757,2.5000110268592834 L 0.4376804828643799,2.5000110268592834 Z" fill="rgb(204, 204, 204)" stroke="rgb(204, 204, 204)" stroke-width="1" vector-effect="non-scaling-stroke"/></g></g><g id="axg6lyjnq2"><g transform="translate(1134.95 829.95)"><path d="M 0,0 L 120,0 L 120,120 L 0,120 Z" fill="rgb(255, 255, 255)" stroke="rgb(204, 204, 204)" stroke-width="1.5" stroke-miterlimit="10" vector-effect="non-scaling-stroke"/><path d="M 92.1,84.1 L 27.9,84.1 L 27.9,35.9 L 92,35.9 L 92,84.1 Z M 31,81.1 L 89,81.1 L 89,38.9 L 31,38.9 L 31,81.1 Z" fill="rgb(204, 204, 204)" stroke="rgb(204, 204, 204)" stroke-width="1.5"/><path d="M 41.1,74.5 L 80.2,74.5 L 71.6,53.5 L 64.4,66.8 L 57.9,58.4 L 52.2,68.6 L 46.6,64 Z" fill="rgb(204, 204, 204)" stroke="rgb(204, 204, 204)" stroke-width="1.5"/><path d="M 41.1,53 C 41.09999989792448,56.925981830489455 45.34999983412727,59.37972058467077 48.74999988516503,57.41672975782605 C 50.32794548237327,56.5057024972134 51.300000047373416,54.82205460327847 51.3,53 C 51.30000010207552,49.074018169510545 47.05000016587274,46.62027941532923 43.650000114834974,48.58327024217395 C 42.07205451762673,49.4942975027866 41.09999995262658,51.17794539672153 41.1,53" fill="rgb(204, 204, 204)" stroke="rgb(204, 204, 204)" stroke-width="1.5"/></g></g><g id="9vdeulqgcp"><g transform="translate(1135 979.95)"><path d="M 0,0 L 120,0 L 120,120 L 0,120 Z" fill="rgb(255, 255, 255)" stroke="rgb(204, 204, 204)" stroke-width="1.5" stroke-miterlimit="10" vector-effect="non-scaling-stroke"/><path d="M 92.1,84.1 L 27.9,84.1 L 27.9,35.9 L 92,35.9 L 92,84.1 Z M 31,81.1 L 89,81.1 L 89,38.9 L 31,38.9 L 31,81.1 Z" fill="rgb(204, 204, 204)" stroke="rgb(204, 204, 204)" stroke-width="1.5"/><path d="M 41.1,74.5 L 80.2,74.5 L 71.6,53.5 L 64.4,66.8 L 57.9,58.4 L 52.2,68.6 L 46.6,64 Z" fill="rgb(204, 204, 204)" stroke="rgb(204, 204, 204)" stroke-width="1.5"/><path d="M 41.1,53 C 41.09999989792448,56.925981830489455 45.34999983412727,59.37972058467077 48.74999988516503,57.41672975782605 C 50.32794548237327,56.5057024972134 51.300000047373416,54.82205460327847 51.3,53 C 51.30000010207552,49.074018169510545 47.05000016587274,46.62027941532923 43.650000114834974,48.58327024217395 C 42.07205451762673,49.4942975027866 41.09999995262658,51.17794539672153 41.1,53" fill="rgb(204, 204, 204)" stroke="rgb(204, 204, 204)" stroke-width="1.5"/></g></g><g id="1gvbz7td30"><g transform="translate(1135 1134.95)"><path d="M 0,0 L 120,0 L 120,120 L 0,120 Z" fill="rgb(255, 255, 255)" stroke="rgb(204, 204, 204)" stroke-width="1.5" stroke-miterlimit="10" vector-effect="non-scaling-stroke"/><path d="M 92.1,84.1 L 27.9,84.1 L 27.9,35.9 L 92,35.9 L 92,84.1 Z M 31,81.1 L 89,81.1 L 89,38.9 L 31,38.9 L 31,81.1 Z" fill="rgb(204, 204, 204)" stroke="rgb(204, 204, 204)" stroke-width="1.5"/><path d="M 41.1,74.5 L 80.2,74.5 L 71.6,53.5 L 64.4,66.8 L 57.9,58.4 L 52.2,68.6 L 46.6,64 Z" fill="rgb(204, 204, 204)" stroke="rgb(204, 204, 204)" stroke-width="1.5"/><path d="M 41.1,53 C 41.09999989792448,56.925981830489455 45.34999983412727,59.37972058467077 48.74999988516503,57.41672975782605 C 50.32794548237327,56.5057024972134 51.300000047373416,54.82205460327847 51.3,53 C 51.30000010207552,49.074018169510545 47.05000016587274,46.62027941532923 43.650000114834974,48.58327024217395 C 42.07205451762673,49.4942975027866 41.09999995262658,51.17794539672153 41.1,53" fill="rgb(204, 204, 204)" stroke="rgb(204, 204, 204)" stroke-width="1.5"/></g></g><g id="1y0kdaggeo"><g transform="translate(869.95 989.95)"><path d="M 0,0 L 120,0 L 120,120 L 0,120 Z" fill="rgb(255, 255, 255)" stroke="rgb(204, 204, 204)" stroke-width="1.5" stroke-miterlimit="10" vector-effect="non-scaling-stroke"/><path d="M 92.1,84.1 L 27.9,84.1 L 27.9,35.9 L 92,35.9 L 92,84.1 Z M 31,81.1 L 89,81.1 L 89,38.9 L 31,38.9 L 31,81.1 Z" fill="rgb(204, 204, 204)" stroke="rgb(204, 204, 204)" stroke-width="1.5"/><path d="M 41.1,74.5 L 80.2,74.5 L 71.6,53.5 L 64.4,66.8 L 57.9,58.4 L 52.2,68.6 L 46.6,64 Z" fill="rgb(204, 204, 204)" stroke="rgb(204, 204, 204)" stroke-width="1.5"/><path d="M 41.1,53 C 41.09999989792448,56.925981830489455 45.34999983412727,59.37972058467077 48.74999988516503,57.41672975782605 C 50.32794548237327,56.5057024972134 51.300000047373416,54.82205460327847 51.3,53 C 51.30000010207552,49.074018169510545 47.05000016587274,46.62027941532923 43.650000114834974,48.58327024217395 C 42.07205451762673,49.4942975027866 41.09999995262658,51.17794539672153 41.1,53" fill="rgb(204, 204, 204)" stroke="rgb(204, 204, 204)" stroke-width="1.5"/></g></g><g id="1dmmo8fdb1"><g transform="translate(164.95 1294.85)"><rect x="0" y="0" width="345.04852294921875" height="45.06947326660156" fill="rgba(255,255,255,0.01)" stroke="rgba(255,255,255,0.01)" stroke-width="NaN" stroke-linecap="round" stroke-linejoin="round"/></g><g transform="translate(186.97426147460936, 1302.3847366333007) rotate(0, 150.5, 15)" width="301" height="30"><text text-decoration="none" x="15" fill="rgb(70, 70, 70)" font-size="19pt" font-family="Lato"  y="23">Featured&#160;</text><text text-decoration="none" x="119" fill="rgb(70, 70, 70)" font-size="19pt" font-family="Lato"  y="23">Product&#160;</text><text text-decoration="none" x="212" fill="rgb(70, 70, 70)" font-size="19pt" font-family="Lato"  y="23">Type&#160;</text><text text-decoration="none" x="272" fill="rgb(70, 70, 70)" font-size="19pt" font-family="Lato"  y="23">1</text><text text-decoration="none" x="286" fill="#4b4b4b" font-size="10pt" font-family="noto_regular"  y="23"></text></g></g><g id="g2nnlj234j"><g transform="translate(170 1334.9)"><rect x="0" y="0" width="199.99923706054688" height="70.99984741210938" fill="rgba(255,255,255,0.01)" stroke="rgba(255,255,255,0.01)" stroke-width="NaN" stroke-linecap="round" stroke-linejoin="round"/></g><g transform="translate(172.49961853027344, 1351.3999237060548) rotate(0, 97.5, 19)" width="195" height="38"><text text-decoration="underline" x="62" fill="rgb(62, 157, 215)" font-size="12pt" font-family="Lato"  y="15">Shop&#160;</text><text text-decoration="underline" x="103" fill="rgb(62, 157, 215)" font-size="12pt" font-family="Lato"  y="15">Link</text><text text-decoration="underline" x="133" fill="rgb(62, 157, 215)" font-size="10pt" font-family="Lato"  y="15"></text><text text-decoration="none" x="11.5" fill="rgb(75, 75, 75)" font-size="9pt" font-family="Lato"  y="34">Hyperlink&#160;</text><text text-decoration="none" x="65.5" fill="rgb(75, 75, 75)" font-size="9pt" font-family="Lato"  y="34">description&#160;</text><text text-decoration="none" x="128.5" fill="rgb(75, 75, 75)" font-size="9pt" font-family="Lato"  y="34">goes&#160;</text><text text-decoration="none" x="157.5" fill="rgb(75, 75, 75)" font-size="9pt" font-family="Lato"  y="34">here.</text><text text-decoration="none" x="183.5" fill="#4b4b4b" font-size="10pt" font-family="noto_regular"  y="34"></text></g></g><g id="7avr62fqc3"><g transform="translate(739.95 1289.85)"><rect x="0" y="0" width="345.04852294921875" height="45.06947326660156" fill="rgba(255,255,255,0.01)" stroke="rgba(255,255,255,0.01)" stroke-width="NaN" stroke-linecap="round" stroke-linejoin="round"/></g><g transform="translate(761.9742614746094, 1297.3847366333007) rotate(0, 150.5, 15)" width="301" height="30"><text text-decoration="none" x="15" fill="rgb(70, 70, 70)" font-size="19pt" font-family="Lato"  y="23">Featured&#160;</text><text text-decoration="none" x="119" fill="rgb(70, 70, 70)" font-size="19pt" font-family="Lato"  y="23">Product&#160;</text><text text-decoration="none" x="212" fill="rgb(70, 70, 70)" font-size="19pt" font-family="Lato"  y="23">Type&#160;</text><text text-decoration="none" x="272" fill="rgb(70, 70, 70)" font-size="19pt" font-family="Lato"  y="23">2</text><text text-decoration="none" x="286" fill="#4b4b4b" font-size="10pt" font-family="noto_regular"  y="23"></text></g></g><g id="4zcxk206ht"><g transform="translate(745 1324.9)"><rect x="0" y="0" width="199.99923706054688" height="70.99984741210938" fill="rgba(255,255,255,0.01)" stroke="rgba(255,255,255,0.01)" stroke-width="NaN" stroke-linecap="round" stroke-linejoin="round"/></g><g transform="translate(747.4996185302734, 1341.3999237060548) rotate(0, 97.5, 19)" width="195" height="38"><text text-decoration="underline" x="62" fill="rgb(62, 157, 215)" font-size="12pt" font-family="Lato"  y="15">Shop&#160;</text><text text-decoration="underline" x="103" fill="rgb(62, 157, 215)" font-size="12pt" font-family="Lato"  y="15">Link</text><text text-decoration="underline" x="133" fill="rgb(62, 157, 215)" font-size="10pt" font-family="Lato"  y="15"></text><text text-decoration="none" x="11.5" fill="rgb(75, 75, 75)" font-size="9pt" font-family="Lato"  y="34">Hyperlink&#160;</text><text text-decoration="none" x="65.5" fill="rgb(75, 75, 75)" font-size="9pt" font-family="Lato"  y="34">description&#160;</text><text text-decoration="none" x="128.5" fill="rgb(75, 75, 75)" font-size="9pt" font-family="Lato"  y="34">goes&#160;</text><text text-decoration="none" x="157.5" fill="rgb(75, 75, 75)" font-size="9pt" font-family="Lato"  y="34">here.</text><text text-decoration="none" x="183.5" fill="#4b4b4b" font-size="10pt" font-family="noto_regular"  y="34"></text></g></g><g id="juz8nri6xh"><g transform="translate(179.95 1419.9)"><path d="M 2.7501978874206543,0.5000075697898865 L 1097.328957080841,0.5000075697898865 L 1097.328957080841,2.5000378489494324 L 2.7501978874206543,2.5000378489494324 Z" fill="rgb(204, 204, 204)" stroke="rgb(204, 204, 204)" stroke-width="1" vector-effect="non-scaling-stroke"/></g></g><g id="18n41rla04"><g transform="translate(706.25 1395)"><ellipse cx="27.53166687488556" cy="27.50041675567627" rx="27.53166687488556" ry="27.50041675567627" fill="rgba(255,255,255,1)" stroke="#cccccc" stroke-width="1.5" stroke-linecap="round" stroke-linejoin="round"/></g></g><g id="21lur4y9x8"><g transform="translate(723.75 1412.4)"><path d="M 19.300292193889618,8.100122630596161 L 11.200169563293457,8.100122630596161 L 11.200169563293457,0 L 8.100122630596161,0 L 8.100122630596161,8.100122630596161 L 0,8.100122630596161 L 0,11.200169563293457 L 8.100122630596161,11.200169563293457 L 8.100122630596161,19.300292193889618 L 11.200169563293457,19.300292193889618 L 11.200169563293457,11.200169563293457 L 19.300292193889618,11.200169563293457 Z" fill="rgb(126, 126, 126)"/></g></g><g id="27jnditw58"><g transform="translate(134.5 1490.15)"><rect x="0" y="0" width="1195.135269165039" height="119.88228678703308" fill="rgba(235,235,235,1)" stroke="#ebebeb" stroke-width="1.5" stroke-linecap="round" stroke-linejoin="round"/></g></g><g id="2itll8jjs5"><g transform="translate(669.95 1529.9)"><rect x="0" y="0" width="150" height="37" fill="rgba(255,255,255,0.01)" stroke="rgba(255,255,255,0.01)" stroke-width="NaN" stroke-linecap="round" stroke-linejoin="round"/></g><g transform="translate(718.45, 1538.4) rotate(0, 26.5, 10)" width="53" height="20"><text text-decoration="none" x="1.5" fill="rgb(38, 38, 38)" font-size="13pt" font-family="Lato"  y="16">Footer</text><text text-decoration="none" x="51.5" fill="#4b4b4b" font-size="10pt" font-family="noto_regular"  y="16"></text></g></g><g id="7a1xjsitr7"><g transform="translate(204.99999999999997 375)"><rect x="0" y="0" width="375.3" height="49.72968749999998" fill="rgba(255,255,255,0.01)" stroke="rgba(255,255,255,0.01)" stroke-width="NaN" stroke-linecap="round" stroke-linejoin="round"/></g><g transform="translate(211.14999999999998, 374.36484375) rotate(0, 181.5, 25.5)" width="363" height="51"><text text-decoration="none" x="25.5" fill="rgb(75, 75, 75)" font-size="10pt" font-family="Lato"  y="12">Lorem&#160;</text><text text-decoration="none" x="64.5" fill="rgb(75, 75, 75)" font-size="10pt" font-family="Lato"  y="12">ipsum&#160;</text><text text-decoration="none" x="102.5" fill="rgb(75, 75, 75)" font-size="10pt" font-family="Lato"  y="12">dolor&#160;</text><text text-decoration="none" x="133.5" fill="rgb(75, 75, 75)" font-size="10pt" font-family="Lato"  y="12">sit&#160;</text><text text-decoration="none" x="150.5" fill="rgb(75, 75, 75)" font-size="10pt" font-family="Lato"  y="12">amet,&#160;</text><text text-decoration="none" x="185.5" fill="rgb(75, 75, 75)" font-size="10pt" font-family="Lato"  y="12">consectetur&#160;</text><text text-decoration="none" x="256.5" fill="rgb(75, 75, 75)" font-size="10pt" font-family="Lato"  y="12">adipiscing&#160;</text><text text-decoration="none" x="317.5" fill="rgb(75, 75, 75)" font-size="10pt" font-family="Lato"  y="12">elit.&#160;</text><text text-decoration="none" x="19.5" fill="rgb(75, 75, 75)" font-size="10pt" font-family="Lato"  y="31">Vestibulum&#160;</text><text text-decoration="none" x="86.5" fill="rgb(75, 75, 75)" font-size="10pt" font-family="Lato"  y="31">et&#160;</text><text text-decoration="none" x="100.5" fill="rgb(75, 75, 75)" font-size="10pt" font-family="Lato"  y="31">varius&#160;</text><text text-decoration="none" x="137.5" fill="rgb(75, 75, 75)" font-size="10pt" font-family="Lato"  y="31">nisl,&#160;</text><text text-decoration="none" x="163.5" fill="rgb(75, 75, 75)" font-size="10pt" font-family="Lato"  y="31">a&#160;</text><text text-decoration="none" x="173.5" fill="rgb(75, 75, 75)" font-size="10pt" font-family="Lato"  y="31">interdum&#160;</text><text text-decoration="none" x="226.5" fill="rgb(75, 75, 75)" font-size="10pt" font-family="Lato"  y="31">sapien.&#160;</text><text text-decoration="none" x="270.5" fill="rgb(75, 75, 75)" font-size="10pt" font-family="Lato"  y="31">Aliquam&#160;</text><text text-decoration="none" x="319.5" fill="rgb(75, 75, 75)" font-size="10pt" font-family="Lato"  y="31">nec&#160;</text><text text-decoration="none" x="343.5" fill="#4b4b4b" font-size="10pt" font-family="noto_regular"  y="31"></text></g></g></svg>